<svg width="90" height="67" viewBox="0 0 90 67" fill="none" xmlns="http://www.w3.org/2000/svg">
<path d="M0.000137396 66.105L0.0451375 60.075L29.3401 33.615C31.8601 31.335 33.5251 29.175 34.3351 27.135C35.1751 25.065 35.5951 22.905 35.5951 20.655C35.5951 17.985 34.9651 15.57 33.7051 13.41C32.4451 11.25 30.7501 9.54002 28.6201 8.28002C26.4901 6.99002 24.1051 6.34502 21.4651 6.34502C18.7051 6.34502 16.2451 7.00502 14.0851 8.32502C11.9251 9.64502 10.2151 11.385 8.95514 13.545C7.72514 15.705 7.12514 18.06 7.15514 20.61H0.405138C0.405138 16.68 1.33514 13.155 3.19514 10.035C5.05514 6.91502 7.57514 4.47002 10.7551 2.70002C13.9351 0.900022 17.5351 2.31266e-05 21.5551 2.31266e-05C25.4851 2.31266e-05 29.0101 0.930022 32.1301 2.79002C35.2801 4.62002 37.7551 7.11002 39.5551 10.26C41.3851 13.38 42.3001 16.86 42.3001 20.7C42.3001 23.4 41.9701 25.785 41.3101 27.855C40.6801 29.895 39.6751 31.8 38.2951 33.57C36.9451 35.31 35.2201 37.11 33.1201 38.97L7.11014 62.46L6.07514 59.76H42.3001V66.105H0.000137396ZM44.1283 66.15L63.1183 41.58L44.5333 17.55H52.4533L66.9883 36.495L81.3883 17.55H89.3083L70.7233 41.58L89.7583 66.15H81.7933L66.9883 46.665L52.0933 66.15H44.1283Z" fill="#394508"/>
</svg>
